<svg id="Layer_1" data-name="Layer 1" xmlns="http://www.w3.org/2000/svg" viewBox="0 0 483 394.22"><defs><style>.cls-1{fill:#fff;}.cls-1,.cls-2,.cls-3{stroke:#000;stroke-miterlimit:10;}.cls-2{fill:aqua;}.cls-3{fill:#ff0;}</style></defs><title>logo3</title><path class="cls-1" d="M427.83,135.35a82.09,82.09,0,0,0-18.34-2.07c-.24,0-.47,0-.71,0a81.28,81.28,0,0,0-62,29.48A109.82,109.82,0,0,0,249.88,105c-.33,0-.63,0-1,0-60.2.5-108.85,49.28-108.85,109.36,0,1.51,0,3,.1,4.51h0a49.84,49.84,0,0,1-49.66,45.36h-.44a49.87,49.87,0,0,1,0-99.74h.44V132.82c-.25,0-.48,0-.72,0a81.49,81.49,0,0,0,0,163c.24,0,.47,0,.72,0a81.26,81.26,0,0,0,62.75-29.5,109.83,109.83,0,0,0,95.66,57.35c.33,0,.63,0,1,0,60.65,0,109.81-49,109.81-109.38,0-.56,0-1.11,0-1.66a49.81,49.81,0,0,1,49.39-47.75h.43a49.88,49.88,0,1,1,0,99.75h-.43l-.28,31.62h.71a81.52,81.52,0,0,0,18.34-160.94ZM250.65,293.23H250a77.59,77.59,0,0,1,0-155.17c.24,0,.45,0,.68,0a77.6,77.6,0,0,1,77.44,72.66c.09,1.35.14,2.72.15,4.1,0,.28,0,.56,0,.84A77.6,77.6,0,0,1,250.65,293.23Z" transform="translate(-8.5 -52.72)"/><path class="cls-2" d="M328.24,214.79H328c0-1.38,0-2.74.1-4.1C328.18,212,328.23,213.41,328.24,214.79Z" transform="translate(-8.5 -52.72)"/><path class="cls-3" d="M328.25,215.63a77.6,77.6,0,0,1-77.6,77.6H250a77.59,77.59,0,0,1,0-155.17c.24,0,.45,0,.68,0a77.6,77.6,0,0,1,77.44,72.66c.09,1.35.14,2.72.15,4.1C328.25,215.07,328.25,215.35,328.25,215.63Z" transform="translate(-8.5 -52.72)"/><path class="cls-1" d="M328.25,215.63a77.6,77.6,0,0,1-77.6,77.6H250a77.59,77.59,0,0,1,0-155.17c.24,0,.45,0,.68,0a77.6,77.6,0,0,1,77.44,72.66c.09,1.35.14,2.72.15,4.1C328.25,215.07,328.25,215.35,328.25,215.63Z" transform="translate(-8.5 -52.72)"/><path class="cls-1" d="M427.83,53.22V324.05c0,67.65-80,122.39-178.81,122.39S70.21,391.7,70.21,324.05V53.22H111V324.05c0,45.1,61.73,81.59,138,81.59s138-36.49,138-81.59V53.22Z" transform="translate(-8.5 -52.72)"/></svg>